<mxfile host="Electron" agent="Mozilla/5.0 (Windows NT 10.0; Win64; x64) AppleWebKit/537.36 (KHTML, like Gecko) draw.io/27.0.2 Chrome/134.0.6998.205 Electron/35.3.0 Safari/537.36" version="27.0.2">
  <diagram name="Page-1" id="e7e014a7-5840-1c2e-5031-d8a46d1fe8dd">
    <mxGraphModel dx="1185" dy="572" grid="1" gridSize="10" guides="1" tooltips="1" connect="1" arrows="1" fold="1" page="1" pageScale="1" pageWidth="1169" pageHeight="826" background="none" math="0" shadow="0">
      <root>
        <mxCell id="0" />
        <mxCell id="1" parent="0" />
        <mxCell id="5" value="" style="ellipse;shape=startState;fillColor=#000000;strokeColor=#ff0000;" parent="1" vertex="1">
          <mxGeometry x="240" y="40" width="30" height="30" as="geometry" />
        </mxCell>
        <mxCell id="6" value="" style="edgeStyle=elbowEdgeStyle;elbow=vertical;verticalAlign=bottom;endArrow=open;endSize=8;strokeColor=#FF0000;endFill=1;rounded=0;exitX=0.5;exitY=1;exitDx=0;exitDy=0;" parent="1" source="5" target="7" edge="1">
          <mxGeometry x="264.5" y="168" as="geometry">
            <mxPoint x="255" y="110" as="targetPoint" />
          </mxGeometry>
        </mxCell>
        <mxCell id="-gRYdN43aUKkROGnT8Kx-41" value="URL" style="edgeLabel;html=1;align=center;verticalAlign=middle;resizable=0;points=[];" parent="6" vertex="1" connectable="0">
          <mxGeometry relative="1" as="geometry">
            <mxPoint x="1" y="-11" as="offset" />
          </mxGeometry>
        </mxCell>
        <mxCell id="7" value="Home Page gehen" style="" parent="1" vertex="1">
          <mxGeometry x="200" y="112.5" width="110" height="50" as="geometry" />
        </mxCell>
        <mxCell id="8" value="Reservation &#xa;erstellen" style="" parent="1" vertex="1">
          <mxGeometry x="200" y="297.5" width="110" height="50" as="geometry" />
        </mxCell>
        <mxCell id="9" value="" style="endArrow=open;strokeColor=#FF0000;endFill=1;rounded=0" parent="1" target="8" edge="1">
          <mxGeometry relative="1" as="geometry">
            <mxPoint x="255" y="240" as="sourcePoint" />
          </mxGeometry>
        </mxCell>
        <mxCell id="-gRYdN43aUKkROGnT8Kx-42" value="no" style="edgeLabel;html=1;align=center;verticalAlign=middle;resizable=0;points=[];" parent="9" vertex="1" connectable="0">
          <mxGeometry x="-0.0783" y="1" relative="1" as="geometry">
            <mxPoint y="1" as="offset" />
          </mxGeometry>
        </mxCell>
        <mxCell id="10" value="Public und Private&#xa;Codes erhalten" style="" parent="1" vertex="1">
          <mxGeometry x="200" y="387.5" width="110" height="50" as="geometry" />
        </mxCell>
        <mxCell id="11" value="" style="endArrow=open;strokeColor=#FF0000;endFill=1;rounded=0" parent="1" source="8" target="10" edge="1">
          <mxGeometry relative="1" as="geometry" />
        </mxCell>
        <mxCell id="22" value="" style="elbow=horizontal;align=left;verticalAlign=bottom;endArrow=open;endSize=8;strokeColor=#FF0000;endFill=1;rounded=0;" parent="1" edge="1">
          <mxGeometry x="-1" relative="1" as="geometry">
            <mxPoint x="254.5" y="202.5" as="targetPoint" />
            <mxPoint x="254.5" y="162.5" as="sourcePoint" />
          </mxGeometry>
        </mxCell>
        <mxCell id="-gRYdN43aUKkROGnT8Kx-43" value="user hat key" style="rhombus;fillColor=#ffffc0;strokeColor=#ff0000;" parent="1" vertex="1">
          <mxGeometry x="215" y="200" width="85" height="50" as="geometry" />
        </mxCell>
        <mxCell id="-gRYdN43aUKkROGnT8Kx-52" value="" style="elbow=horizontal;align=left;verticalAlign=bottom;endArrow=open;endSize=8;strokeColor=#FF0000;endFill=1;rounded=0;exitX=1;exitY=0.5;exitDx=0;exitDy=0;edgeStyle=orthogonalEdgeStyle;" parent="1" source="-gRYdN43aUKkROGnT8Kx-43" edge="1">
          <mxGeometry x="-1" relative="1" as="geometry">
            <mxPoint x="370" y="225" as="targetPoint" />
            <mxPoint x="380" y="277" as="sourcePoint" />
          </mxGeometry>
        </mxCell>
        <mxCell id="-gRYdN43aUKkROGnT8Kx-53" value="yes" style="edgeLabel;html=1;align=center;verticalAlign=middle;resizable=0;points=[];" parent="-gRYdN43aUKkROGnT8Kx-52" vertex="1" connectable="0">
          <mxGeometry x="-0.2067" y="1" relative="1" as="geometry">
            <mxPoint as="offset" />
          </mxGeometry>
        </mxCell>
        <mxCell id="-gRYdN43aUKkROGnT8Kx-54" value="user hat &#xa;private key" style="rhombus;fillColor=#ffffc0;strokeColor=#ff0000;" parent="1" vertex="1">
          <mxGeometry x="520" y="200" width="85" height="50" as="geometry" />
        </mxCell>
        <mxCell id="-gRYdN43aUKkROGnT8Kx-56" value="" style="endArrow=open;strokeColor=#FF0000;endFill=1;rounded=0;exitX=0.5;exitY=1;exitDx=0;exitDy=0;entryX=0.5;entryY=0;entryDx=0;entryDy=0;edgeStyle=orthogonalEdgeStyle;" parent="1" source="-gRYdN43aUKkROGnT8Kx-54" target="-gRYdN43aUKkROGnT8Kx-66" edge="1">
          <mxGeometry relative="1" as="geometry">
            <mxPoint x="645" y="337.5" as="sourcePoint" />
            <mxPoint x="640" y="360" as="targetPoint" />
          </mxGeometry>
        </mxCell>
        <mxCell id="-gRYdN43aUKkROGnT8Kx-57" value="yes" style="edgeLabel;html=1;align=center;verticalAlign=middle;resizable=0;points=[];" parent="-gRYdN43aUKkROGnT8Kx-56" vertex="1" connectable="0">
          <mxGeometry x="-0.2421" y="-3" relative="1" as="geometry">
            <mxPoint as="offset" />
          </mxGeometry>
        </mxCell>
        <mxCell id="-gRYdN43aUKkROGnT8Kx-59" value="" style="endArrow=open;strokeColor=#FF0000;endFill=1;rounded=0;exitX=1;exitY=0.5;exitDx=0;exitDy=0;" parent="1" source="-gRYdN43aUKkROGnT8Kx-77" edge="1">
          <mxGeometry relative="1" as="geometry">
            <mxPoint x="760.5" y="240" as="sourcePoint" />
            <mxPoint x="520" y="225" as="targetPoint" />
          </mxGeometry>
        </mxCell>
        <mxCell id="-gRYdN43aUKkROGnT8Kx-81" value="no" style="edgeLabel;html=1;align=center;verticalAlign=middle;resizable=0;points=[];" parent="-gRYdN43aUKkROGnT8Kx-59" vertex="1" connectable="0">
          <mxGeometry x="-0.0615" y="1" relative="1" as="geometry">
            <mxPoint as="offset" />
          </mxGeometry>
        </mxCell>
        <mxCell id="-gRYdN43aUKkROGnT8Kx-66" value="Reservationen &#xa;ändern/löschen" style="" parent="1" vertex="1">
          <mxGeometry x="507.5" y="297.5" width="110" height="50" as="geometry" />
        </mxCell>
        <mxCell id="-gRYdN43aUKkROGnT8Kx-75" value="" style="endArrow=open;strokeColor=#FF0000;endFill=1;rounded=0;exitX=0.5;exitY=1;exitDx=0;exitDy=0;entryX=1;entryY=0.25;entryDx=0;entryDy=0;edgeStyle=orthogonalEdgeStyle;" parent="1" target="7" edge="1" source="-gRYdN43aUKkROGnT8Kx-80">
          <mxGeometry relative="1" as="geometry">
            <mxPoint x="412.5" y="335" as="sourcePoint" />
            <mxPoint x="470" y="100" as="targetPoint" />
            <Array as="points">
              <mxPoint x="413" y="470" />
              <mxPoint x="790" y="470" />
              <mxPoint x="790" y="125" />
            </Array>
          </mxGeometry>
        </mxCell>
        <mxCell id="-gRYdN43aUKkROGnT8Kx-77" value="user hat &#xa;public key" style="rhombus;fillColor=#ffffc0;strokeColor=#ff0000;" parent="1" vertex="1">
          <mxGeometry x="370" y="200" width="85" height="50" as="geometry" />
        </mxCell>
        <mxCell id="-gRYdN43aUKkROGnT8Kx-78" value="" style="elbow=horizontal;align=left;verticalAlign=bottom;endArrow=open;endSize=8;strokeColor=#FF0000;endFill=1;rounded=0;exitX=0.5;exitY=1;exitDx=0;exitDy=0;edgeStyle=orthogonalEdgeStyle;entryX=0.5;entryY=0;entryDx=0;entryDy=0;" parent="1" source="-gRYdN43aUKkROGnT8Kx-77" target="-gRYdN43aUKkROGnT8Kx-80" edge="1">
          <mxGeometry x="-1" relative="1" as="geometry">
            <mxPoint x="470" y="250" as="targetPoint" />
            <mxPoint x="310" y="235" as="sourcePoint" />
          </mxGeometry>
        </mxCell>
        <mxCell id="-gRYdN43aUKkROGnT8Kx-79" value="yes" style="edgeLabel;html=1;align=center;verticalAlign=middle;resizable=0;points=[];" parent="-gRYdN43aUKkROGnT8Kx-78" vertex="1" connectable="0">
          <mxGeometry x="-0.2067" y="1" relative="1" as="geometry">
            <mxPoint as="offset" />
          </mxGeometry>
        </mxCell>
        <mxCell id="-gRYdN43aUKkROGnT8Kx-80" value="Reservationen &#xa;anschauen" style="" parent="1" vertex="1">
          <mxGeometry x="357.5" y="297.5" width="110" height="50" as="geometry" />
        </mxCell>
        <mxCell id="-gRYdN43aUKkROGnT8Kx-83" value="" style="endArrow=open;strokeColor=#FF0000;endFill=1;rounded=0;exitX=0.5;exitY=1;exitDx=0;exitDy=0;entryX=0.5;entryY=0;entryDx=0;entryDy=0;" parent="1" edge="1">
          <mxGeometry relative="1" as="geometry">
            <mxPoint x="562.5" y="347.5" as="sourcePoint" />
            <mxPoint x="562.5" y="387.5" as="targetPoint" />
          </mxGeometry>
        </mxCell>
        <mxCell id="-gRYdN43aUKkROGnT8Kx-84" value="" style="endArrow=open;strokeColor=#FF0000;endFill=1;rounded=0;exitX=1;exitY=0.5;exitDx=0;exitDy=0;entryX=0;entryY=0.5;entryDx=0;entryDy=0;" parent="1" edge="1" target="Hbd5AjHc5F6UtV09jxjO-23" source="-gRYdN43aUKkROGnT8Kx-54">
          <mxGeometry relative="1" as="geometry">
            <mxPoint x="605" y="224.5" as="sourcePoint" />
            <mxPoint x="670" y="224.5" as="targetPoint" />
          </mxGeometry>
        </mxCell>
        <mxCell id="-gRYdN43aUKkROGnT8Kx-85" value="no" style="edgeLabel;html=1;align=center;verticalAlign=middle;resizable=0;points=[];" parent="-gRYdN43aUKkROGnT8Kx-84" vertex="1" connectable="0">
          <mxGeometry x="-0.0615" y="1" relative="1" as="geometry">
            <mxPoint as="offset" />
          </mxGeometry>
        </mxCell>
        <mxCell id="Hbd5AjHc5F6UtV09jxjO-23" value="error Meldung &#xa;bekommen" style="" vertex="1" parent="1">
          <mxGeometry x="650" y="200" width="110" height="50" as="geometry" />
        </mxCell>
        <mxCell id="Hbd5AjHc5F6UtV09jxjO-24" value="confirmation&#xa; Meldung&#xa; bekommen" style="" vertex="1" parent="1">
          <mxGeometry x="507.5" y="388" width="110" height="50" as="geometry" />
        </mxCell>
        <mxCell id="Hbd5AjHc5F6UtV09jxjO-25" value="" style="endArrow=open;strokeColor=#FF0000;endFill=1;rounded=0;exitX=0;exitY=0.5;exitDx=0;exitDy=0;entryX=0;entryY=0.5;entryDx=0;entryDy=0;edgeStyle=orthogonalEdgeStyle;" edge="1" parent="1">
          <mxGeometry relative="1" as="geometry">
            <mxPoint x="200" y="413" as="sourcePoint" />
            <mxPoint x="200" y="138" as="targetPoint" />
            <Array as="points">
              <mxPoint x="170" y="413" />
              <mxPoint x="170" y="138" />
            </Array>
          </mxGeometry>
        </mxCell>
        <mxCell id="Hbd5AjHc5F6UtV09jxjO-26" value="" style="endArrow=open;strokeColor=#FF0000;endFill=1;rounded=0;exitX=0.5;exitY=1;exitDx=0;exitDy=0;entryX=1;entryY=0.5;entryDx=0;entryDy=0;edgeStyle=orthogonalEdgeStyle;" edge="1" parent="1" source="Hbd5AjHc5F6UtV09jxjO-24" target="7">
          <mxGeometry relative="1" as="geometry">
            <mxPoint x="610" y="438" as="sourcePoint" />
            <mxPoint x="357.5" y="137.5" as="targetPoint" />
            <Array as="points">
              <mxPoint x="560" y="438" />
              <mxPoint x="560" y="460" />
              <mxPoint x="780" y="460" />
              <mxPoint x="780" y="138" />
            </Array>
          </mxGeometry>
        </mxCell>
        <mxCell id="Hbd5AjHc5F6UtV09jxjO-29" value="" style="endArrow=open;strokeColor=#FF0000;endFill=1;rounded=0;exitX=1;exitY=0.5;exitDx=0;exitDy=0;edgeStyle=orthogonalEdgeStyle;entryX=1;entryY=0.75;entryDx=0;entryDy=0;" edge="1" parent="1" source="Hbd5AjHc5F6UtV09jxjO-23" target="7">
          <mxGeometry relative="1" as="geometry">
            <mxPoint x="573" y="448" as="sourcePoint" />
            <mxPoint x="380" y="170" as="targetPoint" />
          </mxGeometry>
        </mxCell>
      </root>
    </mxGraphModel>
  </diagram>
</mxfile>
